<svg width="994" height="994" viewBox="0 0 994 994" fill="none" xmlns="http://www.w3.org/2000/svg">
<rect width="993.333" height="993.333" rx="496.667" fill="white"/>
<path d="M482 26.2667C390.267 30.2667 308.667 56.5334 235.6 105.6C61.7332 222.4 -13.4668 439.2 50.5332 639.333C68.6666 696.4 100.533 753.467 139.867 799.333C156.4 818.667 162.8 825.333 180.667 841.733C246.133 901.6 333.067 944 418.667 957.867C446.667 962.4 452.667 962.933 486.933 963.6C537.467 964.667 572.133 960.667 616 949.067C621.467 947.6 627.867 945.867 630 945.333C634 944.267 652.8 938 663.733 934C679.867 928.267 708.933 914.4 730.133 902.533C784.667 872 839.067 822.8 878.267 768.667C923.333 706.4 952.8 631.333 962.667 554C966.533 524 966.533 463.467 962.8 436.4C947.733 329.2 902.8 237.867 828.667 163.6C764.133 98.9334 682.933 54.9334 594 36C561.2 29.0667 512.8 24.8 482 26.2667ZM302.267 163.467C308.933 168.8 312 175.067 312 183.333C312 192.133 307.6 200.933 301.067 205.2L296.133 208.4L300.533 213.6C304.267 217.867 305.733 221.6 308.667 234C310.533 242.267 313.067 250.267 314 251.6C315.067 252.933 316 255.067 316 256.267C316 258.267 314.8 258.667 308 258.667H300.133L298.8 253.6C298 250.933 296.533 244.4 295.333 239.333C290.533 218.8 287.733 212 283.867 212C283.2 212 282.667 220 282.667 230.533C282.667 245.333 283.067 249.333 284.667 250.667C285.733 251.6 286.667 253.733 286.667 255.467C286.667 258.533 286.4 258.667 275.333 258.667C265.2 258.667 264 258.4 264 256.133C264 254.8 264.933 252.933 266 252C267.733 250.533 268 244.133 268 208.667C268 173.2 267.733 166.8 266 165.333C264.933 164.4 264 162.533 264 161.067C264 158.4 264.667 158.4 280.667 158.933C296.8 159.467 297.333 159.6 302.267 163.467ZM374.533 200.933C384 248.533 384.667 251.467 387.333 252.533C388.4 252.933 389.333 254.533 389.333 256C389.333 258.533 388.533 258.667 377.467 258.667C370.8 258.667 365.067 258 364.667 257.333C364.267 256.533 365.067 254.4 366.533 252.533C368.533 250 368.933 248 368.4 244.267C366.8 234 366.133 233.333 358.133 233.333C350 233.333 348.667 234.4 347.333 242.4C346.667 246.667 346.933 248.933 348.533 251.333C352.533 257.467 351.467 258.667 342 258.667C334.267 258.667 333.333 258.4 333.333 256.133C333.333 254.667 334 253.067 334.8 252.667C337.333 250.933 339.2 244.133 344 218C344.667 214.267 347.067 202.4 349.333 191.333C351.467 180.4 353.333 169.6 353.333 167.2C353.333 163.6 354 162.667 358.4 160.933C361.067 159.733 364 158.8 364.667 158.8C365.467 158.667 369.867 177.467 374.533 200.933ZM421.333 160.667C421.333 161.733 420.667 163.867 419.733 165.2C418.533 167.333 418.667 170.667 420.533 181.6C421.733 189.2 423.467 199.333 424.267 204.267C425.067 209.333 426.133 213.333 426.667 213.333C427.067 213.333 428.933 205.867 430.667 196.667C433.867 179.067 433.6 168.933 430.133 166.133C429.067 165.333 428 163.467 427.733 162C427.333 159.6 428.133 159.333 438.133 158.933C450.267 158.533 452.533 160 448 165.733C445.6 168.8 445.6 169.2 448.8 186.8C450.533 196.667 452.267 206.667 452.667 208.933C454 216.133 455.467 214 457.2 202.267C458.133 196.267 459.733 186.4 460.933 180.267C462.933 169.333 462.933 169.067 460.133 166.133C454.8 160.4 456.267 158.667 466.667 158.667C476.933 158.667 478.533 160.4 473.467 165.867C471.733 167.867 469.867 174.533 467.467 188.667C453.867 264.933 454.133 264.133 450.133 260C448.533 258.267 442.933 230.933 440.133 210.933C439.733 207.867 438.8 205.067 438 204.933C436.933 204.667 435.333 212.267 429.2 248.667C428.4 253.733 426.933 258.667 426.133 259.6C422.4 263.733 421.2 259.467 411.867 208.667C405.867 176.4 403.733 167.333 401.867 165.2C400.8 164.133 400 162.133 400 160.933C400 158.933 401.6 158.667 410.667 158.667C419.333 158.667 421.333 159.067 421.333 160.667ZM518.667 160.933C518.667 162.133 517.867 164.133 516.8 165.2C514.933 167.2 514.267 178.533 514.533 197.067L514.667 201.467L521.733 201.067L528.667 200.667L529.067 184.933C529.333 172.533 528.933 168.667 527.333 166.267C526.267 164.667 525.333 162.4 525.333 161.067C525.333 158.933 526.667 158.667 536.667 158.667C546.933 158.667 548 158.933 548 161.2C548 162.667 547.067 164.667 546 165.867C543.067 168.8 543.067 247.467 546 251.467C547.067 252.8 548 255.067 548 256.267C548 258.4 546.533 258.667 536.667 258.667C526.8 258.667 525.333 258.4 525.333 256.267C525.333 255.067 526.267 252.8 527.333 251.467C528.933 249.467 529.333 244.4 529.333 229.733V210.533L521.733 210.933L514 211.333L514.4 230.667C514.8 245.6 515.333 250.533 516.933 252.267C521.2 256.933 518.267 258.667 506 258.667C495.867 258.667 494.667 258.4 494.667 256.133C494.667 254.8 495.6 252.933 496.667 252C498.4 250.533 498.667 244.133 498.667 208.667C498.667 173.2 498.4 166.8 496.667 165.333C495.6 164.4 494.667 162.533 494.667 161.2C494.667 158.933 495.867 158.667 506.667 158.667C516.933 158.667 518.667 158.933 518.667 160.933ZM592 160.933C592 162.133 591.067 164.133 590 165.333C588.4 167.067 588 174.267 588 208.4C587.867 244.133 588.133 249.6 590 252.533C591.2 254.4 591.867 256.533 591.333 257.333C590.933 258 585.867 258.667 580 258.667C574.133 258.667 569.067 258 568.667 257.333C568.133 256.533 568.933 254.267 570.267 252.267C572.4 249.067 572.667 244.933 572.933 210.133C573.333 173.6 573.2 171.2 570.667 166.267C569.2 163.467 568.267 160.533 568.667 159.867C569.2 159.2 574.533 158.667 580.8 158.667C590.4 158.667 592 158.933 592 160.933ZM642 161.2C650.267 164.933 656.933 172.667 660.267 182.667C662.8 190 663.2 194 663.067 208.667C662.933 228.533 660 241.2 653.6 249.2C647.333 257.067 642.667 258.667 626.4 258.667C612.667 258.667 612 258.533 612 255.867C612 254.4 612.933 252.267 614 251.2C615.733 249.467 616 242.933 616 208.8C616 174.4 615.733 168.133 614 166.667C612.933 165.733 612 163.6 612 161.867C612 158.667 612.267 158.667 624.4 158.667C633.333 158.667 638.133 159.333 642 161.2ZM728 168.533C728 175.867 727.467 178.533 726.133 179.067C723.867 180 722 178 720.667 173.333C719.067 167.733 717.333 166.667 710.533 166.667H704V184.8C704 202.8 704 202.8 707.067 202.4C708.933 202.133 710.933 200.267 712.4 196.933C714 193.733 715.867 192 717.467 192C719.867 192 720.133 192.933 719.733 206.267C719.333 218.933 719.067 220.667 716.933 220.667C715.6 220.667 713.6 218.667 712.267 216C710.933 213.067 708.8 211.2 707.067 210.933L704 210.533V231.2V252H709.733C717.067 252 719.467 250.133 722.533 242C724.267 237.333 725.867 235.2 727.867 234.933C730.533 234.533 730.667 235.067 730.667 246.533V258.667H708.133C683.867 258.667 682.133 258.133 686.8 252.133C689.2 249.2 689.333 245.867 689.333 208.667C689.333 174.4 689.067 168.133 687.333 166.667C686.267 165.733 685.333 163.6 685.333 161.867V158.667H706.667H728V168.533ZM762.4 278.267C764.133 281.6 764.4 300.267 762.667 304.533L761.333 308H497.6C294.267 308 233.467 307.6 232.267 306.4C230.533 304.667 229.867 278.533 231.6 276.933C232 276.4 351.467 276 496.8 276C747.333 276 761.333 276.133 762.4 278.267ZM354.933 359.6C343.067 371.467 339.467 375.733 335.467 384C326.133 403.2 325.733 421.333 334.267 439.867C345.067 463.6 374.533 486.8 408.933 498.533C421.067 502.667 421.067 502.667 436.933 501.333C445.6 500.667 456.4 499.333 460.933 498.4C470.933 496.533 476 497.733 486.667 504.667C490.667 507.2 495.333 509.333 497.2 509.333C499.067 509.333 504.4 506.8 509.067 503.733C518.8 497.333 524.4 496.667 543.067 499.733C548.8 500.533 559.2 501.333 566.133 501.333C577.467 501.333 580.133 500.8 590.933 496.667C627.2 482.667 650.667 462.133 661.6 435.067C665.067 426.267 665.733 422.933 665.733 413.333C665.733 391.867 659.467 378.933 639.733 359.6C632.4 352.4 626.667 346.133 627.067 345.733C628.533 344.4 666.667 363.867 678.933 372.267C685.733 376.933 696.4 385.733 702.8 392C723.867 412.933 733.867 431.733 737.733 457.6C739.467 470.133 736.933 487.6 730.933 502.267C718.133 533.6 685.067 563.467 641.467 582.8C625.6 589.733 623.867 589.333 617.6 577.333C606.8 556.533 597.2 537.067 597.6 536.667C597.867 536.533 608.533 531.333 621.333 525.067C634.133 518.933 648.933 511.067 654 507.6C693.467 481.2 708 442.933 691.867 407.867C688 399.467 678.133 387.467 680.533 394C686.8 411.2 686.667 431.6 680.267 445.467C667.467 473.733 639.333 495.6 595.733 511.467C587.867 514.267 581.333 517.2 581.333 518C581.333 520.667 616.533 601.6 618 602.267C618.933 602.533 624 600.667 629.467 598.133C648.267 589.333 656.4 587.333 673.333 587.467C691.333 587.467 702.667 590.267 718.667 598.933C729.867 604.933 744.8 615.6 746 618.667C747.733 622.8 728.133 636.267 712 641.867C702.267 645.2 698.8 645.733 687.333 645.733C672.133 645.733 653.067 641.6 647.067 636.933C644.533 635.067 652.933 628.933 668.133 621.6C675.333 618.133 681.2 614.533 681.2 613.6C681.333 612.4 678.133 612 669.6 612C657.6 612 646 614.533 634.267 619.733C627.2 622.933 626.533 625.067 630.533 633.067C631.867 635.733 633.333 639.733 633.867 641.867C635.2 647.6 631.333 657.733 624.8 664.933C611.733 679.6 599.067 694.8 586.4 710.933C575.2 725.067 572.533 727.867 571.067 726.4C570.133 725.333 566.533 716.8 563.2 707.333C559.867 697.733 555.333 685.067 553.2 679.067C551.067 673.2 549.6 667.333 550.133 666.267C550.533 665.2 556 662 562.4 659.2C570 655.733 573.067 653.867 571.333 653.467C567.467 652.8 542.4 659.067 541.733 660.933C541.067 662.533 542.933 670 553.467 709.333C555.467 717.067 558.667 728.933 560.533 735.733C562.267 742.533 564.4 748.933 565.333 750C566.133 751.067 569.867 752 573.733 752.267L580.667 752.667L581.067 781.867C581.467 814.533 581.467 814.4 572.133 817.067C569.333 818 564.8 820.4 561.867 822.533C556.667 826.267 555.2 828.667 548.8 843.2C544.133 853.733 537.867 861.067 528.933 866.4C510 877.867 483.867 877.733 465.6 866.133C454.4 859.067 440 838.4 440 829.6C440 825.733 434.533 821.6 425.733 818.533C412.8 814.267 413.2 815.6 413.6 782L414 752.8L421.2 751.2C425.467 750.267 428.933 748.667 429.867 747.2C431.467 744.4 436.667 726.267 446.667 688.667C452.8 665.733 453.733 661.2 452.533 660C450.8 658.533 426 653.067 423.2 653.6C421.733 653.867 425.733 656.267 433.067 659.6C439.867 662.8 445.333 665.867 445.333 666.4C445.333 667.067 442.933 674.533 439.867 682.8C436.933 691.2 433.867 699.733 433.333 701.733C430.533 710.8 423.6 728 422.667 728C422.133 728 418.133 723.6 413.867 718.267C409.6 713.067 405.733 708.4 405.333 708C404.933 707.6 400.933 702.8 396.533 697.333C392.267 691.867 382.267 679.733 374.4 670.267C366.667 660.8 359.867 651.6 359.467 649.867C358.933 647.733 359.867 643.867 362.133 638.933C368 626.133 368.133 625.6 365.733 623.2C359.733 617.2 338.4 611.733 323.467 612.267C317.333 612.533 312.667 613.333 312.4 614.133C312.133 614.933 317.2 617.733 323.6 620.533C336.267 625.867 348 633.067 348 635.6C348 637.2 338.533 641.2 328 644C319.333 646.4 298.267 646 288 643.333C275.6 640.133 263.333 633.733 254.933 626L247.6 619.333L254.4 613.333C268.667 600.533 289.733 590.667 308.533 587.867C327.067 585.067 347.867 589.333 369.733 600C373.6 602 376.4 602.667 377.2 601.867C377.867 601.2 381.2 594 384.667 586C388 577.867 392.667 567.067 394.933 562C397.067 556.8 399.733 550.8 400.533 548.667C401.467 546.4 404.8 538.8 408 531.6C411.467 523.867 413.333 518.133 412.533 517.467C411.867 516.933 403.6 513.333 394 509.467C361.6 496.4 346.533 486.933 330 469.067C320.8 459.067 315.467 450.133 311.333 437.467C308.533 428.933 309.2 408 312.533 399.333C313.6 396.4 314.533 393.067 314.533 392C314.533 389.067 308.533 396.8 304 405.467C289.2 434.267 295.6 466.267 321.333 492C334.267 504.933 349.2 514.133 387.733 532.533C392.667 534.933 396 537.333 396 538.533C395.867 539.733 390.4 551.467 383.6 564.667C372.267 586.933 371.067 588.667 367.867 588.4C362.533 588.133 330.267 572 316 562.533C289.867 545.2 269.867 520.533 260.8 494.267C244.533 446.933 272.133 395.867 332.667 361.333C340.533 356.8 365.733 345.333 367.733 345.333C368.667 345.333 362.933 351.733 354.933 359.6Z" fill="black"/>
<path d="M282.667 184.667C282.667 204.8 283.6 206.8 290.4 201.734C295.734 197.734 298.267 187.2 296.267 177.734C294.534 169.734 292 166.8 286.4 166.667H282.667V184.667Z" fill="black"/>
<path d="M356.8 197.467C355.6 201.733 352 220.267 352 222.667C352 224.933 352.933 225.333 358 225.333C364.933 225.333 364.8 226.267 361.467 209.6C358.933 196.933 357.867 194.133 356.8 197.467Z" fill="black"/>
<path d="M630.667 209.467V252.267L634.4 251.333C644.134 248.933 646.667 240.4 646.667 209.733C646.667 192.933 646.134 185.333 644.534 179.867C642.134 171.467 638.134 166.667 633.734 166.667H630.667V209.467Z" fill="black"/>
<path d="M330.933 285.6C330.267 286.533 329.733 290 329.733 293.333C330 298.4 330.4 299.333 333.067 299.733C334.667 300 336 299.6 336 298.8C336 298 335.467 297.333 334.8 297.333C333.333 297.333 333.6 289.466 334.933 287.2C336.8 284.266 333.2 282.933 330.933 285.6Z" fill="black"/>
<path d="M492.8 285.2C492.267 285.867 492.533 286.8 493.333 287.333C494 287.733 494.667 290.8 494.667 294.133C494.667 301.867 497.333 301.733 497.6 294C497.6 290.667 497.733 287.2 497.867 286.4C498 284.267 493.867 283.333 492.8 285.2Z" fill="black"/>
<path d="M656.533 285.867C656.133 286.8 656 290.267 656.267 293.467C656.533 298.4 657.2 299.467 659.733 299.734C663.067 300.267 663.733 298 660.533 296.8C658.8 296.134 658.667 295.6 660 294C661.333 292.4 661.333 291.6 660 290C658.667 288.4 658.8 287.867 660.533 287.2C661.733 286.8 662.267 285.867 661.867 285.2C660.8 283.334 657.333 283.734 656.533 285.867Z" fill="black"/>
<path d="M738.533 284.934C736.933 297.067 737.867 302.534 740.667 297.334L742.533 294L742.667 297.067C742.667 298.8 743.2 299.867 743.867 299.334C745.733 298.267 744.533 286.534 742.533 285.2C740.267 283.734 738.667 283.734 738.533 284.934Z" fill="black"/>
<path d="M249.333 292.667C249.333 299.067 249.6 300 252 300C253.466 300 254.666 299.333 254.666 298.667C254.666 297.867 254.133 297.333 253.333 297.333C252.666 297.333 252 294.667 252 291.333C252 288 251.466 285.333 250.666 285.333C250 285.333 249.333 288.667 249.333 292.667Z" fill="black"/>
<path d="M412.8 286.933C411.333 291.467 410.933 298.667 412.133 299.333C412.8 299.867 413.333 299.467 413.333 298.533C413.333 297.333 413.733 297.333 415.2 298.533C417.866 300.8 418.4 298.933 417.466 292.133C416.666 286.4 413.866 283.333 412.8 286.933Z" fill="black"/>
<path d="M574.667 292.933C574.667 300.266 576.267 301.466 577.734 295.333C578.267 293.333 578.4 293.6 578.534 296.266C578.8 303.333 581.334 300 581.334 292.666C581.334 285.6 579.6 282.8 578.267 287.6C577.734 289.866 577.6 289.866 577.467 287.6C577.467 286.4 576.8 285.333 576 285.333C575.334 285.333 574.667 288.8 574.667 292.933Z" fill="black"/>
<path d="M432.267 533.333C427.067 548.666 426.934 551.866 431.6 557.6C433.6 560 446.667 575.466 460.667 591.866C474.534 608.266 488.134 624.266 490.667 627.466C493.2 630.666 496 633.2 496.934 633.333C498.534 633.333 501.067 630.533 528.134 598.666C566.134 554.133 566.934 553.066 566.267 548.666C565.334 542.4 559.734 523.466 558.534 522.133C557.867 521.333 557.334 526 557.334 532.933C557.334 539.733 556.667 546.8 556 548.666C555.2 550.666 546.667 561.466 536.934 572.933C527.334 584.266 518.8 594.666 518 596.133C516.134 599.866 513.334 599.2 513.334 594.933C513.334 592.933 514.267 585.6 515.334 578.666C516.4 571.733 517.334 565.066 517.334 564C517.2 560.666 515.334 564.666 510 579.333C507.334 586.666 504.4 594.8 503.334 597.333C502.4 599.866 500.8 604 499.867 606.4C497.334 613.466 496.667 612.4 484.667 579.333C481.867 572 479.2 565.066 478.534 564C477.067 561.733 478 575.066 480.267 586.8C480.934 590.933 481.334 595.333 481.067 596.8C480.534 599.733 478.534 597.6 454.134 568.8L437.467 549.066L437.067 534.8L436.667 520.666L432.267 533.333Z" fill="black"/>
<path d="M401.333 608.934C401.333 620.134 401.866 625.467 403.066 626.4C405.733 628.534 453.066 642.667 457.733 642.667C460.133 642.667 459.866 642.134 456 638.934C453.466 636.934 447.2 631.734 442 627.334C436.933 622.934 426.933 614.534 420 608.8C413.066 602.934 406 597.067 404.4 595.6L401.333 592.934V608.934Z" fill="black"/>
<path d="M585.867 599.066C582.267 602.266 573.6 609.6 566.667 615.333C559.734 621.2 553.734 626.266 553.334 626.666C552.934 627.066 548.934 630.533 544.267 634.266C536 641.2 534.134 643.733 538.267 642.933C546.534 641.2 590.267 627.466 591.467 626.266C593.2 624.533 594.934 593.333 593.334 593.333C592.8 593.333 589.334 595.866 585.867 599.066Z" fill="black"/>
<path d="M488.8 673.6C489.067 676.8 490 686.266 490.667 694.666C494.534 738.266 496 754.266 496 756.4C496 757.733 496.534 758.533 497.2 758.133C498.267 757.466 498.667 753.6 501.467 721.333C502.134 712.933 503.467 697.6 504.534 687.333C505.467 677.066 506 668.4 505.734 668C505.334 667.6 503.734 668.933 502 670.933C498.134 675.466 497.334 675.6 493.334 671.333C489.067 666.666 488.267 667.066 488.8 673.6Z" fill="black"/>
<path d="M469.333 774.4C469.333 774.934 475.6 781.734 483.333 789.334L497.466 803.2L512.133 788.534C520.133 780.534 526.133 773.867 525.466 773.6C524.8 773.334 518.8 776.534 512.266 780.534C505.6 784.667 498.933 788 497.333 788C495.6 788 490.666 785.734 486.133 782.8C475.333 776 469.333 773.067 469.333 774.4Z" fill="black"/>
<path d="M431.466 776.933C430.4 778.133 430.533 797.733 431.733 799.467C432.266 800.267 434 801.2 435.733 801.733C438.133 802.267 439.333 801.6 441.333 798.267C446.133 790.533 446 787.067 441.2 783.067C434.533 777.333 432.4 776 431.466 776.933Z" fill="black"/>
<path d="M555.467 781.467C551.467 784.8 550.667 786.534 550.667 790.667C550.667 794.134 551.734 797.067 553.734 799.467C556.534 802.667 557.067 802.8 559.734 801.2C561.334 800.134 563.067 797.6 563.467 795.334C564.534 789.334 563.6 778.267 561.734 777.734C560.934 777.467 558.134 779.067 555.467 781.467Z" fill="black"/>
<path d="M457.467 799.866C456.667 801.333 456 805.866 456 809.866C456 823.866 465.867 839.333 478.933 845.866C484.8 848.8 487.6 849.333 497.333 849.333C507.067 849.333 509.867 848.8 515.733 845.866C523.467 842 530.533 834.533 534.933 825.466C537.333 820.8 538 817.066 538 809.733C538 804.4 537.467 799.6 536.667 798.8C535.733 798 532.533 799.6 527.333 803.6C518.4 810.266 516.667 812.8 521.467 811.6C523.2 811.2 526.267 810.4 528.4 810C531.6 809.066 532 809.333 532 812.533C532 817.2 527.467 826 523.733 828.533C521.333 830.266 516.4 830.666 497.2 830.666C473.733 830.666 473.467 830.666 469.467 827.2C467.2 825.333 464.8 821.6 464 818.933C461.733 810.533 461.867 810.266 469.333 811.066C473.067 811.466 476 811.6 476 811.066C476 810.4 472.267 807.2 463.867 800.933C458.933 797.333 458.8 797.333 457.467 799.866Z" fill="black"/>
</svg>
